<svg width="659.5px" height="122.4px" xmlns="http://www.w3.org/2000/svg" viewBox="-79.74001464843747 13.800003051757812 659.4800292968749 122.39999389648438" style="background: none" preserveAspectRatio="xMidYMid"><defs><linearGradient id="editing-gradient-gradient" x1="0" x2="1" y1="0.5" y2="0.5" gradientUnits="objectBoundingBox"><stop offset="0" stop-color="#51b3e6"></stop><stop offset="1" stop-color="#e64dde"></stop></linearGradient></defs><g><g transform="matrix(1.2,0,0,1.2,-27.4,120.9)"><path d="M -19.7 -14.9 L -33.6 -14.9 L -25.5 -57.1 L -11.4 -57.1 L -19.7 -14.9 Z M 36.1 -13.6 L 36.1 -13.6 L 36.1 -13.6 Q 28.3 -13.6 28.3 -19.6 L 28.3 -19.6 L 28.3 -19.6 Q 28.3 -22.2 29.4 -27.3 L 29.4 -27.3 L 29.4 -27.3 Q 30.6 -32.4 30.9 -34.5 L 30.9 -34.5 L 30.9 -34.5 Q 31.8 -39.1 31.8 -40.6 L 31.8 -40.6 L 31.8 -40.6 Q 31.8 -43.9 29.4 -43.9 L 29.4 -43.9 L 29.4 -43.9 Q 27.8 -43.9 26.3 -41.7 L 26.3 -41.7 L 26.3 -41.7 Q 24.7 -39.5 24 -35 L 24 -35 L 20.1 -14.9 L 7.6 -13.6 L 11 -31 L 11 -31 Q 11.6 -33.9 12.1 -37.2 L 12.1 -37.2 L 12.1 -37.2 Q 12.6 -40.4 12.6 -40.9 L 12.6 -40.9 L 12.6 -40.9 Q 12.6 -43.9 10.5 -43.9 L 10.5 -43.9 L 10.5 -43.9 Q 9 -43.9 7.4 -41.7 L 7.4 -41.7 L 7.4 -41.7 Q 5.8 -39.5 4.9 -35 L 4.9 -35 L 1 -14.9 L -11.6 -13.6 L -4.9 -47.5 L 5.5 -48.8 L 4.4 -42.3 L 4.4 -42.3 Q 6.1 -45.8 9.2 -47.3 L 9.2 -47.3 L 9.2 -47.3 Q 12.3 -48.8 17.1 -48.8 L 17.1 -48.8 L 17.1 -48.8 Q 19.8 -48.8 21.6 -47.5 L 21.6 -47.5 L 21.6 -47.5 Q 23.4 -46.1 24 -43.9 L 24 -43.9 L 24 -43.9 Q 25.1 -46.2 27.8 -47.5 L 27.8 -47.5 L 27.8 -47.5 Q 30.6 -48.8 34 -48.8 L 34 -48.8 L 34 -48.8 Q 37.5 -48.8 39.2 -48.1 L 39.2 -48.1 L 39.2 -48.1 Q 40.9 -47.3 41.9 -46.1 L 41.9 -46.1 L 41.9 -46.1 Q 43.6 -43.9 43.6 -39.8 L 43.6 -39.8 L 43.6 -39.8 Q 43.6 -35.7 41.9 -27.4 L 41.9 -27.4 L 41.9 -27.4 Q 41 -23.3 41 -21.8 L 41 -21.8 L 41 -21.8 Q 41 -20.3 41.9 -19.4 L 41.9 -19.4 L 41.9 -19.4 Q 42.7 -18.5 44 -18.3 L 44 -18.3 L 44 -18.3 Q 43.4 -16.2 41.2 -14.9 L 41.2 -14.9 L 41.2 -14.9 Q 38.9 -13.6 36.1 -13.6 Z M 51.7 -16.8 L 51.7 -16.8 L 51.7 -16.8 Q 50.2 -18.5 49.5 -21.1 L 49.5 -21.1 L 49.5 -21.1 Q 48.9 -23.7 48.9 -28 L 48.9 -28 L 48.9 -28 Q 48.9 -32.3 50.3 -36.2 L 50.3 -36.2 L 50.3 -36.2 Q 51.8 -40.1 54.5 -42.9 L 54.5 -42.9 L 54.5 -42.9 Q 60 -48.8 69.1 -48.8 L 69.1 -48.8 L 69.1 -48.8 Q 72.4 -48.8 74.7 -47.7 L 74.7 -47.7 L 85.7 -48.8 L 80.9 -23.8 L 80.9 -23.8 Q 80.7 -23.1 80.7 -21.7 L 80.7 -21.7 L 80.7 -21.7 Q 80.7 -20.3 81.6 -19.4 L 81.6 -19.4 L 81.6 -19.4 Q 82.5 -18.5 83.7 -18.3 L 83.7 -18.3 L 83.7 -18.3 Q 83.1 -16.2 80.8 -14.9 L 80.8 -14.9 L 80.8 -14.9 Q 78.4 -13.6 75.8 -13.6 L 75.8 -13.6 L 75.8 -13.6 Q 73.2 -13.6 71.4 -14.6 L 71.4 -14.6 L 71.4 -14.6 Q 69.7 -15.6 69.2 -17.3 L 69.2 -17.3 L 69.2 -17.3 Q 68.1 -15.7 66 -14.6 L 66 -14.6 L 66 -14.6 Q 63.8 -13.6 60.9 -13.6 L 60.9 -13.6 L 60.9 -13.6 Q 58 -13.6 55.6 -14.4 L 55.6 -14.4 L 55.6 -14.4 Q 53.2 -15.1 51.7 -16.8 Z M 65.2 -42.8 L 65.2 -42.8 L 65.2 -42.8 Q 64.5 -41.6 63.8 -39.7 L 63.8 -39.7 L 63.8 -39.7 Q 63.2 -37.7 62.1 -32.5 L 62.1 -32.5 L 62.1 -32.5 Q 61.1 -27.3 61.1 -23.6 L 61.1 -23.6 L 61.1 -23.6 Q 61.1 -19.9 61.7 -18.8 L 61.7 -18.8 L 61.7 -18.8 Q 62.2 -17.7 63.3 -17.7 L 63.3 -17.7 L 63.3 -17.7 Q 65.3 -17.7 66.8 -19.7 L 66.8 -19.7 L 66.8 -19.7 Q 68.3 -21.6 68.9 -25.1 L 68.9 -25.1 L 72.3 -43.8 L 72.3 -43.8 Q 70.9 -45 69.4 -45 L 69.4 -45 L 69.4 -45 Q 67.8 -45 66.9 -44.5 L 66.9 -44.5 L 66.9 -44.5 Q 66 -43.9 65.2 -42.8 Z M 93.4 -41.6 L 93.4 -41.6 L 93.4 -41.6 Q 95.6 -44.7 98.9 -46.8 L 98.9 -46.8 L 98.9 -46.8 Q 102.2 -48.8 106.2 -48.8 L 106.2 -48.8 L 106.2 -48.8 Q 110.2 -48.8 112.2 -47.5 L 112.2 -47.5 L 124.7 -48.8 L 120.4 -24.2 L 120.4 -24.2 Q 118.1 -11.7 113.4 -6.8 L 113.4 -6.8 L 113.4 -6.8 Q 108.8 -2.1 100 -2.1 L 100 -2.1 L 100 -2.1 Q 93.3 -2.1 89.4 -4.2 L 89.4 -4.2 L 89.4 -4.2 Q 85.6 -6.3 85.6 -9.8 L 85.6 -9.8 L 85.6 -9.8 Q 85.6 -12.5 87.6 -14 L 87.6 -14 L 87.6 -14 Q 89.6 -15.5 92.6 -15.5 L 92.6 -15.5 L 92.6 -15.5 Q 95.3 -15.5 97.4 -14.2 L 97.4 -14.2 L 97.4 -14.2 Q 98.6 -13.6 99.2 -12.7 L 99.2 -12.7 L 99.2 -12.7 Q 97.7 -11.4 97.7 -9.3 L 97.7 -9.3 L 97.7 -9.3 Q 97.7 -6.6 100.3 -6.6 L 100.3 -6.6 L 100.3 -6.6 Q 104.5 -6.6 107 -16.7 L 107 -16.7 L 107 -16.7 Q 107.7 -19.4 108.3 -22.2 L 108.3 -22.2 L 108.3 -22.2 Q 105.4 -18.7 98.8 -18.7 L 98.8 -18.7 L 98.8 -18.7 Q 94.3 -18.7 91.7 -20.8 L 91.7 -20.8 L 91.7 -20.8 Q 89.1 -23 89.1 -28.1 L 89.1 -28.1 L 89.1 -28.1 Q 89.1 -31.3 90.1 -34.9 L 90.1 -34.9 L 90.1 -34.9 Q 91.2 -38.6 93.4 -41.6 Z M 101.7 -27.9 L 101.7 -27.9 L 101.7 -27.9 Q 101.7 -23.6 104 -23.6 L 104 -23.6 L 104 -23.6 Q 105.5 -23.6 107 -25.3 L 107 -25.3 L 107 -25.3 Q 108.1 -26.6 108.6 -28.6 L 108.6 -28.6 L 111.8 -45 L 111.8 -45 Q 111.5 -45.1 111.2 -45.2 L 111.2 -45.2 L 111.2 -45.2 Q 110.6 -45.5 109.7 -45.5 L 109.7 -45.5 L 109.7 -45.5 Q 105.8 -45.5 103.5 -39.1 L 103.5 -39.1 L 103.5 -39.1 Q 101.7 -34.1 101.7 -27.9 Z M 153.1 -25.7 L 153.1 -25.7 L 153.1 -25.7 Q 154.7 -24.6 154.7 -22.2 L 154.7 -22.2 L 154.7 -22.2 Q 154.7 -19.8 153.5 -18.3 L 153.5 -18.3 L 153.5 -18.3 Q 152.3 -16.7 150.3 -15.7 L 150.3 -15.7 L 150.3 -15.7 Q 146.2 -13.6 141.8 -13.6 L 141.8 -13.6 L 141.8 -13.6 Q 137.4 -13.6 134.8 -14.6 L 134.8 -14.6 L 134.8 -14.6 Q 132.2 -15.5 130.5 -17.3 L 130.5 -17.3 L 130.5 -17.3 Q 127.1 -20.7 127.1 -26.9 L 127.1 -26.9 L 127.1 -26.9 Q 127.1 -36.6 132.3 -42.5 L 132.3 -42.5 L 132.3 -42.5 Q 138 -48.8 147.7 -48.8 L 147.7 -48.8 L 147.7 -48.8 Q 153.8 -48.8 156.8 -46.2 L 156.8 -46.2 L 156.8 -46.2 Q 159.1 -44.3 159.1 -41.2 L 159.1 -41.2 L 159.1 -41.2 Q 159.1 -29.9 139.6 -29.9 L 139.6 -29.9 L 139.6 -29.9 Q 139.4 -28.3 139.4 -26.9 L 139.4 -26.9 L 139.4 -26.9 Q 139.4 -23.9 140.7 -22.8 L 140.7 -22.8 L 140.7 -22.8 Q 142 -21.7 144.4 -21.7 L 144.4 -21.7 L 144.4 -21.7 Q 146.8 -21.7 149.4 -22.8 L 149.4 -22.8 L 149.4 -22.8 Q 152 -23.9 153.1 -25.7 Z M 140.1 -32.7 L 140.1 -32.7 L 140.1 -32.7 Q 144.6 -32.7 147.2 -35.5 L 147.2 -35.5 L 147.2 -35.5 Q 149.9 -38.2 149.9 -42.5 L 149.9 -42.5 L 149.9 -42.5 Q 149.9 -43.9 149.3 -44.7 L 149.3 -44.7 L 149.3 -44.7 Q 148.8 -45.5 147.7 -45.5 L 147.7 -45.5 L 147.7 -45.5 Q 146.6 -45.5 145.7 -45.1 L 145.7 -45.1 L 145.7 -45.1 Q 144.7 -44.7 143.8 -43.3 L 143.8 -43.3 L 143.8 -43.3 Q 141.4 -40.1 140.1 -32.7 Z M 180.4 -37.3 L 180.4 -37.3 L 180.4 -37.3 Q 181.3 -39.7 181.3 -41.8 L 181.3 -41.8 L 181.3 -41.8 Q 181.3 -45.5 178.2 -45.5 L 178.2 -45.5 L 178.2 -45.5 Q 176.6 -45.5 175.3 -44.1 L 175.3 -44.1 L 175.3 -44.1 Q 174 -42.7 174 -40.9 L 174 -40.9 L 174 -40.9 Q 174 -39.6 175 -38.6 L 175 -38.6 L 175 -38.6 Q 176.5 -37.2 180.3 -34.9 L 180.3 -34.9 L 180.3 -34.9 Q 184 -32.5 185.5 -30.7 L 185.5 -30.7 L 185.5 -30.7 Q 186.9 -28.8 186.9 -26.2 L 186.9 -26.2 L 186.9 -26.2 Q 186.9 -23.6 185.7 -21.2 L 185.7 -21.2 L 185.7 -21.2 Q 184.4 -18.9 182.2 -17.2 L 182.2 -17.2 L 182.2 -17.2 Q 177.4 -13.6 169.7 -13.6 L 169.7 -13.6 L 169.7 -13.6 Q 165.5 -13.6 162.3 -15.8 L 162.3 -15.8 L 162.3 -15.8 Q 159.1 -17.9 159.1 -20.4 L 159.1 -20.4 L 159.1 -20.4 Q 159.1 -22.9 161 -24.4 L 161 -24.4 L 161 -24.4 Q 162.8 -25.8 165.5 -25.8 L 165.5 -25.8 L 165.5 -25.8 Q 168.2 -25.8 169.8 -24.8 L 169.8 -24.8 L 169.8 -24.8 Q 169 -22.7 169 -21.3 L 169 -21.3 L 169 -21.3 Q 169 -17.1 172.6 -17.1 L 172.6 -17.1 L 172.6 -17.1 Q 174.1 -17.1 175.1 -18 L 175.1 -18 L 175.1 -18 Q 176.2 -19 176.2 -20.6 L 176.2 -20.6 L 176.2 -20.6 Q 176.2 -23.9 170.7 -27.4 L 170.7 -27.4 L 170.7 -27.4 Q 166.2 -30.3 165.2 -31.5 L 165.2 -31.5 L 165.2 -31.5 Q 163.4 -33.5 163.4 -36.1 L 163.4 -36.1 L 163.4 -36.1 Q 163.4 -38.6 164.6 -41.1 L 164.6 -41.1 L 164.6 -41.1 Q 165.9 -43.5 168.1 -45.2 L 168.1 -45.2 L 168.1 -45.2 Q 172.8 -48.8 180.9 -48.8 L 180.9 -48.8 L 180.9 -48.8 Q 185.1 -48.8 187.5 -47.1 L 187.5 -47.1 L 187.5 -47.1 Q 190 -45.5 190 -42.7 L 190 -42.7 L 190 -42.7 Q 190 -39.8 188.3 -38.2 L 188.3 -38.2 L 188.3 -38.2 Q 186.6 -36.6 183.5 -36.6 L 183.5 -36.6 L 183.5 -36.6 Q 181.4 -36.6 180.4 -37.3 Z M 231.5 -35.5 L 244.4 -36.6 L 244.4 -36.6 Q 239.8 -26.5 239.8 -14.8 L 239.8 -14.8 L 239.8 -14.8 Q 238 -13.6 235.5 -13.6 L 235.5 -13.6 L 235.5 -13.6 Q 233 -13.6 231.4 -14.8 L 231.4 -14.8 L 231.4 -14.8 Q 229.8 -16 229.5 -17.2 L 229.5 -17.2 L 229.5 -17.2 Q 227.9 -15.5 225.3 -14.6 L 225.3 -14.6 L 225.3 -14.6 Q 222.7 -13.6 219.9 -13.6 L 219.9 -13.6 L 219.9 -13.6 Q 217.2 -13.6 214.8 -14.5 L 214.8 -14.5 L 214.8 -14.5 Q 212.4 -15.4 210.5 -17.4 L 210.5 -17.4 L 210.5 -17.4 Q 206.4 -21.7 206.4 -30 L 206.4 -30 L 206.4 -30 Q 206.4 -42.8 213.3 -50.5 L 213.3 -50.5 L 213.3 -50.5 Q 220.3 -58.4 232.8 -58.4 L 232.8 -58.4 L 232.8 -58.4 Q 241.4 -58.4 244.5 -53.9 L 244.5 -53.9 L 244.5 -53.9 Q 245.5 -52.5 245.5 -50.8 L 245.5 -50.8 L 245.5 -50.8 Q 245.5 -49.1 244.7 -47.7 L 244.7 -47.7 L 244.7 -47.7 Q 244 -46.2 242.8 -45.1 L 242.8 -45.1 L 242.8 -45.1 Q 240.1 -42.5 236.7 -42.5 L 236.7 -42.5 L 236.7 -42.5 Q 235.4 -42.5 234.1 -43 L 234.1 -43 L 234.1 -43 Q 234.3 -44.9 234.3 -47.1 L 234.3 -47.1 L 234.3 -47.1 Q 234.3 -49.4 234.2 -50.4 L 234.2 -50.4 L 234.2 -50.4 Q 234 -51.4 233.6 -52.3 L 233.6 -52.3 L 233.6 -52.3 Q 232.8 -54 231 -54 L 231 -54 L 231 -54 Q 229.2 -54 227.1 -52 L 227.1 -52 L 227.1 -52 Q 225.1 -50.1 223.5 -46.9 L 223.5 -46.9 L 223.5 -46.9 Q 220 -39.7 220 -31.1 L 220 -31.1 L 220 -31.1 Q 220 -27.1 221.5 -24.3 L 221.5 -24.3 L 221.5 -24.3 Q 223.2 -21.2 226.1 -21.2 L 226.1 -21.2 L 226.1 -21.2 Q 227.2 -21.2 228.1 -21.7 L 228.1 -21.7 L 228.1 -21.7 Q 229 -22.2 229.4 -22.6 L 229.4 -22.6 L 231.5 -35.5 Z M 250.3 -16.8 L 250.3 -16.8 L 250.3 -16.8 Q 248.8 -18.5 248.1 -21.1 L 248.1 -21.1 L 248.1 -21.1 Q 247.5 -23.7 247.5 -28 L 247.5 -28 L 247.5 -28 Q 247.5 -32.3 248.9 -36.2 L 248.9 -36.2 L 248.9 -36.2 Q 250.4 -40.1 253.1 -42.9 L 253.1 -42.9 L 253.1 -42.9 Q 258.6 -48.8 267.7 -48.8 L 267.7 -48.8 L 267.7 -48.8 Q 270.9 -48.8 273.3 -47.7 L 273.3 -47.7 L 284.3 -48.8 L 279.5 -23.8 L 279.5 -23.8 Q 279.3 -23.1 279.3 -21.7 L 279.3 -21.7 L 279.3 -21.7 Q 279.3 -20.3 280.2 -19.4 L 280.2 -19.4 L 280.2 -19.4 Q 281.1 -18.5 282.3 -18.3 L 282.3 -18.3 L 282.3 -18.3 Q 281.7 -16.2 279.4 -14.9 L 279.4 -14.9 L 279.4 -14.9 Q 277 -13.6 274.4 -13.6 L 274.4 -13.6 L 274.4 -13.6 Q 271.8 -13.6 270 -14.6 L 270 -14.6 L 270 -14.6 Q 268.3 -15.6 267.7 -17.3 L 267.7 -17.3 L 267.7 -17.3 Q 266.7 -15.7 264.5 -14.6 L 264.5 -14.6 L 264.5 -14.6 Q 262.4 -13.6 259.5 -13.6 L 259.5 -13.6 L 259.5 -13.6 Q 256.5 -13.6 254.2 -14.4 L 254.2 -14.4 L 254.2 -14.4 Q 251.8 -15.1 250.3 -16.8 Z M 263.8 -42.8 L 263.8 -42.8 L 263.8 -42.8 Q 263.1 -41.6 262.4 -39.7 L 262.4 -39.7 L 262.4 -39.7 Q 261.8 -37.7 260.7 -32.5 L 260.7 -32.5 L 260.7 -32.5 Q 259.7 -27.3 259.7 -23.6 L 259.7 -23.6 L 259.7 -23.6 Q 259.7 -19.9 260.3 -18.8 L 260.3 -18.8 L 260.3 -18.8 Q 260.8 -17.7 261.9 -17.7 L 261.9 -17.7 L 261.9 -17.7 Q 263.9 -17.7 265.4 -19.7 L 265.4 -19.7 L 265.4 -19.7 Q 266.9 -21.6 267.5 -25.1 L 267.5 -25.1 L 270.9 -43.8 L 270.9 -43.8 Q 269.5 -45 268 -45 L 268 -45 L 268 -45 Q 266.4 -45 265.5 -44.5 L 265.5 -44.5 L 265.5 -44.5 Q 264.5 -43.9 263.8 -42.8 Z M 303 -18.4 L 303 -18.4 L 303 -18.4 Q 301 -13.6 294.7 -13.6 L 294.7 -13.6 L 294.7 -13.6 Q 291.5 -13.6 289.4 -15.8 L 289.4 -15.8 L 289.4 -15.8 Q 287.8 -17.7 287.8 -19.8 L 287.8 -19.8 L 287.8 -19.8 Q 287.8 -24.6 290 -35.1 L 290 -35.1 L 294.7 -59.7 L 307.7 -61 L 301.5 -28.6 L 301.5 -28.6 Q 300.4 -23.8 300.4 -22.2 L 300.4 -22.2 L 300.4 -22.2 Q 300.4 -18.5 303 -18.4 Z M 323.7 -18.4 L 323.7 -18.4 L 323.7 -18.4 Q 321.8 -13.6 315.4 -13.6 L 315.4 -13.6 L 315.4 -13.6 Q 312.2 -13.6 310.2 -15.8 L 310.2 -15.8 L 310.2 -15.8 Q 308.5 -17.7 308.5 -19.8 L 308.5 -19.8 L 308.5 -19.8 Q 308.5 -24.6 310.8 -35.1 L 310.8 -35.1 L 315.4 -59.7 L 328.4 -61 L 322.2 -28.6 L 322.2 -28.6 Q 321.1 -23.8 321.1 -22.2 L 321.1 -22.2 L 321.1 -22.2 Q 321.1 -18.5 323.7 -18.4 Z M 355.1 -25.7 L 355.1 -25.7 L 355.1 -25.7 Q 356.7 -24.6 356.7 -22.2 L 356.7 -22.2 L 356.7 -22.2 Q 356.7 -19.8 355.5 -18.3 L 355.5 -18.3 L 355.5 -18.3 Q 354.3 -16.7 352.3 -15.7 L 352.3 -15.7 L 352.3 -15.7 Q 348.2 -13.6 343.8 -13.6 L 343.8 -13.6 L 343.8 -13.6 Q 339.4 -13.6 336.8 -14.6 L 336.8 -14.6 L 336.8 -14.6 Q 334.2 -15.5 332.4 -17.3 L 332.4 -17.3 L 332.4 -17.3 Q 329.1 -20.7 329.1 -26.9 L 329.1 -26.9 L 329.1 -26.9 Q 329.1 -36.6 334.3 -42.5 L 334.3 -42.5 L 334.3 -42.5 Q 339.9 -48.8 349.7 -48.8 L 349.7 -48.8 L 349.7 -48.8 Q 355.8 -48.8 358.8 -46.2 L 358.8 -46.2 L 358.8 -46.2 Q 361.1 -44.3 361.1 -41.2 L 361.1 -41.2 L 361.1 -41.2 Q 361.1 -29.9 341.6 -29.9 L 341.6 -29.9 L 341.6 -29.9 Q 341.3 -28.3 341.3 -26.9 L 341.3 -26.9 L 341.3 -26.9 Q 341.3 -23.9 342.7 -22.8 L 342.7 -22.8 L 342.7 -22.8 Q 344 -21.7 346.4 -21.7 L 346.4 -21.7 L 346.4 -21.7 Q 348.8 -21.7 351.4 -22.8 L 351.4 -22.8 L 351.4 -22.8 Q 354 -23.9 355.1 -25.7 Z M 342 -32.7 L 342 -32.7 L 342 -32.7 Q 346.6 -32.7 349.2 -35.5 L 349.2 -35.5 L 349.2 -35.5 Q 351.8 -38.2 351.8 -42.5 L 351.8 -42.5 L 351.8 -42.5 Q 351.8 -43.9 351.3 -44.7 L 351.3 -44.7 L 351.3 -44.7 Q 350.8 -45.5 349.7 -45.5 L 349.7 -45.5 L 349.7 -45.5 Q 348.6 -45.5 347.6 -45.1 L 347.6 -45.1 L 347.6 -45.1 Q 346.7 -44.7 345.8 -43.3 L 345.8 -43.3 L 345.8 -43.3 Q 343.4 -40.1 342 -32.7 Z M 383.3 -32.9 L 383.3 -32.9 L 383.3 -32.9 Q 385.6 -37 385.6 -41.1 L 385.6 -41.1 L 385.6 -41.1 Q 385.6 -43.9 383.6 -43.9 L 383.6 -43.9 L 383.6 -43.9 Q 382 -43.9 380.4 -41.3 L 380.4 -41.3 L 380.4 -41.3 Q 378.8 -38.6 378.3 -35.2 L 378.3 -35.2 L 374.9 -14.9 L 361.7 -13.6 L 368.2 -47.5 L 378.8 -48.8 L 377.6 -42.3 L 377.6 -42.3 Q 380.8 -48.8 387.8 -48.8 L 387.8 -48.8 L 387.8 -48.8 Q 391.5 -48.8 393.5 -46.9 L 393.5 -46.9 L 393.5 -46.9 Q 395.6 -45 395.6 -41 L 395.6 -41 L 395.6 -41 Q 395.6 -37.1 393 -34.6 L 393 -34.6 L 393 -34.6 Q 390.4 -32.1 386 -32.1 L 386 -32.1 L 386 -32.1 Q 384 -32.1 383.3 -32.9 Z M 416.9 -22.1 L 416.9 -22.1 L 416.9 -22.1 Q 413.6 -18.7 407.5 -18.7 L 407.5 -18.7 L 407.5 -18.7 Q 399.9 -18.7 398.3 -24.2 L 398.3 -24.2 L 398.3 -24.2 Q 397.8 -25.9 397.8 -27.7 L 397.8 -27.7 L 397.8 -27.7 Q 397.8 -29.6 398.2 -31.5 L 398.2 -31.5 L 401.2 -47.5 L 414.2 -48.8 L 410.7 -30.2 L 410.7 -30.2 Q 410.5 -29.3 410.3 -28.5 L 410.3 -28.5 L 410.3 -28.5 Q 410.1 -27.6 410.1 -26.6 L 410.1 -26.6 L 410.1 -26.6 Q 410.1 -25.7 410.5 -25.1 L 410.5 -25.1 L 410.5 -25.1 Q 410.8 -24.5 411.2 -24.1 L 411.2 -24.1 L 411.2 -24.1 Q 412 -23.6 413.4 -23.6 L 413.4 -23.6 L 413.4 -23.6 Q 414.8 -23.6 415.9 -25.3 L 415.9 -25.3 L 415.9 -25.3 Q 417.1 -26.9 417.7 -29.8 L 417.7 -29.8 L 421.2 -47.5 L 433.8 -48.8 L 429 -23.7 L 429 -23.7 Q 426.7 -11.4 421.8 -6.5 L 421.8 -6.5 L 421.8 -6.5 Q 419.3 -4 416.1 -3 L 416.1 -3 L 416.1 -3 Q 412.8 -2 408.7 -2 L 408.7 -2 L 408.7 -2 Q 402 -2 398.1 -4.1 L 398.1 -4.1 L 398.1 -4.1 Q 394.3 -6.2 394.3 -9.8 L 394.3 -9.8 L 394.3 -9.8 Q 394.3 -12.4 396.3 -13.9 L 396.3 -13.9 L 396.3 -13.9 Q 398.2 -15.4 401.3 -15.4 L 401.3 -15.4 L 401.3 -15.4 Q 404 -15.4 406 -14.2 L 406 -14.2 L 406 -14.2 Q 407.3 -13.5 407.8 -12.6 L 407.8 -12.6 L 407.8 -12.6 Q 406.4 -11.4 406.4 -9.3 L 406.4 -9.3 L 406.4 -9.3 Q 406.4 -6.4 408.9 -6.4 L 408.9 -6.4 L 408.9 -6.4 Q 413.2 -6.4 415.6 -16.2 L 415.6 -16.2 L 415.6 -16.2 Q 416.3 -19 416.9 -22.1 Z" fill="url(#editing-gradient-gradient)"></path></g></g><style>text {
  font-size: 64px;
  font-family: Arial Black;
  dominant-baseline: central;
  text-anchor: middle;
}</style></svg>